<svg id="svg" version="1.1" width="400" height="400" viewBox="0 0 400 400" xmlns="http://www.w3.org/2000/svg" xmlns:xlink="http://www.w3.org/1999/xlink" ><g id="svgg"><path id="path0" d="M230.387 99.833 C 230.140 100.483,230.033 111.553,230.097 129.733 L 230.200 158.600 247.726 158.704 L 265.251 158.808 265.059 162.904 C 264.828 167.797,264.446 170.400,263.958 170.400 C 263.761 170.400,263.595 170.715,263.590 171.100 C 263.574 172.182,261.783 177.194,261.147 177.937 C 260.834 178.302,260.550 178.690,260.515 178.800 C 260.157 179.926,259.723 180.726,259.120 181.375 C 258.724 181.802,258.400 182.387,258.400 182.675 C 258.400 182.964,258.220 183.200,258.000 183.200 C 257.780 183.200,257.600 183.451,257.600 183.757 C 257.600 184.335,250.597 191.600,250.040 191.600 C 249.866 191.600,249.201 192.050,248.562 192.600 C 247.923 193.149,247.257 193.599,247.083 193.600 C 246.909 193.600,246.390 193.951,245.929 194.380 C 245.078 195.173,243.088 196.231,242.000 196.469 C 241.670 196.541,241.310 196.711,241.200 196.847 C 240.873 197.251,237.492 198.800,236.937 198.800 C 236.655 198.800,235.811 199.145,235.061 199.566 C 234.311 199.987,233.271 200.392,232.749 200.466 L 231.800 200.600 231.694 212.900 L 231.588 225.200 233.294 225.186 C 234.232 225.179,236.389 224.843,238.088 224.441 C 239.786 224.038,241.271 223.804,241.388 223.921 C 241.504 224.038,241.600 223.948,241.600 223.721 C 241.600 223.495,242.725 223.074,244.100 222.787 C 245.475 222.500,247.005 222.005,247.500 221.686 C 247.995 221.368,248.400 221.208,248.400 221.330 C 248.400 221.453,248.882 221.302,249.471 220.997 C 250.061 220.691,250.691 220.532,250.871 220.644 C 251.052 220.756,251.200 220.657,251.200 220.424 C 251.200 220.191,251.560 220.000,252.000 220.000 C 252.440 220.000,252.800 219.820,252.800 219.600 C 252.800 219.380,253.222 219.200,253.738 219.200 C 254.254 219.200,255.002 218.840,255.400 218.400 C 255.798 217.960,256.445 217.600,256.838 217.600 C 257.231 217.600,257.664 217.420,257.800 217.200 C 257.936 216.980,258.357 216.800,258.735 216.800 C 259.114 216.800,259.683 216.440,260.000 216.000 C 260.317 215.560,260.897 215.200,261.288 215.200 C 261.680 215.200,262.000 215.020,262.000 214.800 C 262.000 214.580,262.236 214.400,262.525 214.400 C 262.813 214.400,263.436 214.040,263.908 213.600 C 264.380 213.160,265.004 212.800,265.295 212.800 C 265.586 212.800,266.083 212.440,266.400 212.000 C 266.717 211.560,267.217 211.200,267.512 211.200 C 267.806 211.200,267.936 211.020,267.800 210.800 C 267.664 210.580,267.827 210.400,268.162 210.400 C 268.769 210.400,269.070 210.167,272.300 207.196 C 273.235 206.335,274.000 205.727,274.000 205.844 C 274.000 205.961,274.270 205.787,274.600 205.457 C 274.930 205.127,275.200 204.762,275.200 204.647 C 275.200 204.531,275.605 203.996,276.100 203.458 C 279.333 199.943,280.000 199.141,280.000 198.770 C 280.000 198.540,280.180 198.464,280.400 198.600 C 280.620 198.736,280.800 198.543,280.800 198.171 C 280.800 197.798,281.149 197.191,281.575 196.822 C 282.001 196.452,282.406 195.898,282.475 195.590 C 282.544 195.283,282.915 194.675,283.300 194.240 C 283.685 193.805,284.000 193.213,284.000 192.925 C 284.000 192.636,284.180 192.400,284.400 192.400 C 284.620 192.400,284.800 192.130,284.800 191.800 C 284.800 191.470,284.935 191.196,285.100 191.192 C 285.265 191.187,285.850 190.201,286.400 189.000 C 286.950 187.799,287.497 186.813,287.615 186.808 C 287.733 186.804,287.860 186.398,287.897 185.906 C 287.934 185.414,288.152 184.949,288.382 184.873 C 288.612 184.796,288.800 184.403,288.800 184.000 C 288.800 183.597,288.963 183.207,289.162 183.133 C 289.361 183.060,289.586 182.550,289.662 182.000 C 289.738 181.450,289.893 180.910,290.007 180.800 C 290.328 180.489,291.306 176.768,291.505 175.100 C 291.604 174.275,291.845 173.600,292.042 173.600 C 292.239 173.600,292.400 172.880,292.400 172.000 C 292.400 171.120,292.580 170.400,292.800 170.400 C 293.020 170.400,293.200 169.590,293.200 168.600 C 293.200 167.610,293.350 166.800,293.534 166.800 C 293.718 166.800,293.909 165.675,293.957 164.300 C 294.006 162.925,294.216 161.629,294.423 161.420 C 294.630 161.211,294.800 159.107,294.800 156.744 C 294.800 154.178,294.969 152.343,295.219 152.188 C 295.501 152.014,295.469 151.719,295.119 151.288 C 294.730 150.807,294.725 150.722,295.100 150.947 C 295.498 151.186,295.600 145.896,295.600 125.024 L 295.600 98.800 263.190 98.800 L 230.780 98.800 230.387 99.833 M335.697 128.700 L 335.800 158.600 353.321 158.704 L 370.842 158.808 370.763 161.804 C 370.719 163.452,370.529 164.800,370.342 164.800 C 370.154 164.800,370.000 165.779,370.000 166.976 C 370.000 168.173,369.820 169.264,369.600 169.400 C 369.380 169.536,369.200 170.267,369.200 171.024 C 369.200 171.781,369.020 172.400,368.800 172.400 C 368.580 172.400,368.400 172.940,368.400 173.600 C 368.400 174.260,368.220 174.800,368.000 174.800 C 367.780 174.800,367.600 175.160,367.600 175.600 C 367.600 176.040,367.462 176.400,367.293 176.400 C 367.124 176.400,366.558 177.390,366.036 178.600 C 365.513 179.810,364.952 180.800,364.789 180.800 C 364.625 180.800,364.199 181.416,363.841 182.170 C 362.683 184.610,357.012 191.200,356.070 191.200 C 355.877 191.200,355.173 191.721,354.507 192.358 C 353.841 192.995,352.869 193.649,352.348 193.812 C 351.826 193.975,351.310 194.245,351.200 194.412 C 350.878 194.903,344.818 198.000,344.181 198.000 C 343.861 198.000,343.600 198.180,343.600 198.400 C 343.600 198.620,343.150 198.800,342.600 198.800 C 342.050 198.800,341.600 198.980,341.600 199.200 C 341.600 199.420,341.060 199.600,340.400 199.600 C 339.740 199.600,339.200 199.780,339.200 200.000 C 339.200 200.220,338.750 200.400,338.200 200.400 L 337.200 200.400 337.200 212.855 L 337.200 225.310 339.700 225.050 C 341.075 224.907,343.085 224.522,344.166 224.194 C 345.247 223.867,346.221 223.687,346.329 223.796 C 346.438 223.904,346.733 223.821,346.986 223.612 C 347.239 223.402,348.426 222.972,349.623 222.656 C 350.820 222.340,352.725 221.714,353.856 221.264 C 354.987 220.814,356.022 220.556,356.156 220.690 C 356.290 220.824,356.400 220.723,356.400 220.467 C 356.400 220.210,356.760 220.000,357.200 220.000 C 357.640 220.000,358.000 219.843,358.000 219.650 C 358.000 219.457,358.518 219.196,359.152 219.070 C 359.785 218.943,360.555 218.605,360.861 218.320 C 361.168 218.034,361.683 217.741,362.006 217.668 C 362.328 217.595,362.704 217.355,362.841 217.134 C 362.978 216.913,363.204 216.747,363.345 216.766 C 364.244 216.886,364.749 216.707,365.508 216.000 C 365.980 215.560,366.644 215.200,366.983 215.200 C 367.322 215.200,367.600 215.020,367.600 214.800 C 367.600 214.580,367.881 214.400,368.224 214.400 C 368.567 214.400,368.736 214.220,368.600 214.000 C 368.464 213.780,368.588 213.599,368.876 213.598 C 369.164 213.597,370.349 212.877,371.508 211.998 C 372.668 211.119,373.709 210.400,373.822 210.400 C 374.052 210.400,374.757 209.776,378.075 206.636 C 379.326 205.452,380.451 204.585,380.575 204.708 C 380.699 204.832,380.800 204.705,380.800 204.427 C 380.800 204.148,381.449 203.271,382.243 202.477 C 383.036 201.684,384.159 200.397,384.738 199.617 C 385.317 198.838,386.063 197.930,386.396 197.600 C 386.728 197.270,387.051 196.756,387.114 196.457 C 387.177 196.159,387.492 195.651,387.814 195.329 C 388.136 195.006,388.400 194.589,388.400 194.400 C 388.400 194.211,388.638 193.819,388.929 193.528 C 389.220 193.237,390.164 191.560,391.027 189.800 C 391.890 188.040,392.732 186.540,392.898 186.467 C 393.064 186.393,393.200 185.988,393.200 185.567 C 393.200 185.145,393.391 184.800,393.624 184.800 C 393.857 184.800,393.952 184.647,393.836 184.459 C 393.720 184.271,393.884 183.776,394.200 183.359 C 394.516 182.942,394.780 182.105,394.787 181.500 C 394.794 180.895,394.980 180.400,395.200 180.400 C 395.420 180.400,395.600 179.961,395.600 179.424 C 395.600 178.887,395.780 178.336,396.000 178.200 C 396.220 178.064,396.400 177.513,396.400 176.976 C 396.400 176.439,396.580 176.000,396.800 176.000 C 397.020 176.000,397.200 175.280,397.200 174.400 C 397.200 173.520,397.380 172.800,397.600 172.800 C 397.820 172.800,398.000 172.170,398.000 171.400 C 398.000 170.630,398.180 170.000,398.400 170.000 C 398.621 170.000,398.800 168.960,398.800 167.680 C 398.800 166.357,399.015 165.145,399.300 164.860 C 399.690 164.471,399.828 157.134,399.926 131.580 L 400.052 98.800 367.824 98.800 L 335.595 98.800 335.697 128.700 " stroke="none" fill="#24b4d4" fill-rule="evenodd"></path><path id="path1" d="M59.200 175.200 C 59.200 175.420,58.480 175.600,57.600 175.600 C 56.720 175.600,56.000 175.780,56.000 176.000 C 56.000 176.220,55.280 176.400,54.400 176.400 C 53.520 176.400,52.800 176.559,52.800 176.754 C 52.800 176.949,51.813 177.231,50.606 177.382 C 49.400 177.533,48.309 177.823,48.183 178.028 C 48.056 178.233,47.513 178.400,46.976 178.400 C 46.439 178.400,46.000 178.547,46.000 178.728 C 46.000 178.908,45.100 179.300,44.000 179.600 C 42.900 179.900,42.000 180.292,42.000 180.472 C 42.000 180.653,41.640 180.800,41.200 180.800 C 40.760 180.800,40.400 180.980,40.400 181.200 C 40.400 181.420,40.040 181.600,39.600 181.600 C 39.160 181.600,38.800 181.780,38.800 182.000 C 38.800 182.220,38.440 182.400,38.000 182.400 C 37.560 182.400,37.200 182.580,37.200 182.800 C 37.200 183.020,36.928 183.200,36.595 183.200 C 36.039 183.200,34.478 183.922,34.000 184.400 C 33.604 184.796,31.385 186.054,30.700 186.271 C 30.315 186.393,30.000 186.652,30.000 186.847 C 30.000 187.041,29.794 187.200,29.543 187.200 C 29.292 187.200,28.571 187.740,27.940 188.400 C 27.309 189.060,26.603 189.600,26.371 189.600 C 26.138 189.600,25.071 190.500,24.000 191.600 C 22.929 192.700,21.815 193.600,21.526 193.601 C 21.237 193.602,20.280 194.423,19.400 195.427 C 18.520 196.431,16.945 198.152,15.900 199.253 C 14.855 200.353,14.000 201.397,14.000 201.572 C 14.000 201.748,13.465 202.501,12.812 203.246 C 12.158 203.991,11.216 205.455,10.717 206.500 C 10.219 207.545,9.674 208.400,9.506 208.400 C 9.338 208.400,9.200 208.745,9.200 209.167 C 9.200 209.588,9.065 209.993,8.900 210.067 C 8.405 210.287,6.000 215.254,6.000 216.056 C 6.000 216.465,5.820 216.800,5.600 216.800 C 5.380 216.800,5.200 217.149,5.200 217.576 C 5.200 218.003,5.020 218.464,4.800 218.600 C 4.580 218.736,4.400 219.287,4.400 219.824 C 4.400 220.361,4.220 220.800,4.000 220.800 C 3.780 220.800,3.600 221.340,3.600 222.000 C 3.600 222.660,3.420 223.200,3.200 223.200 C 2.980 223.200,2.800 223.920,2.800 224.800 C 2.800 225.680,2.620 226.400,2.400 226.400 C 2.180 226.400,2.000 227.019,2.000 227.776 C 2.000 228.533,1.820 229.264,1.600 229.400 C 1.380 229.536,1.200 230.612,1.200 231.790 C 1.200 233.149,1.017 233.994,0.700 234.100 C 0.307 234.231,0.173 241.407,0.072 267.733 L -0.057 301.200 32.172 301.200 L 64.400 301.200 64.400 271.200 L 64.400 241.200 46.800 241.200 L 29.200 241.200 29.200 237.624 C 29.200 235.657,29.380 233.936,29.600 233.800 C 29.820 233.664,30.000 232.753,30.000 231.776 C 30.000 230.799,30.180 230.000,30.400 230.000 C 30.620 230.000,30.800 229.280,30.800 228.400 C 30.800 227.520,30.980 226.800,31.200 226.800 C 31.420 226.800,31.600 226.440,31.600 226.000 C 31.600 225.560,31.780 225.200,32.000 225.200 C 32.220 225.200,32.400 224.750,32.400 224.200 C 32.400 223.650,32.580 223.200,32.800 223.200 C 33.020 223.200,33.200 222.840,33.200 222.400 C 33.200 221.960,33.380 221.600,33.600 221.600 C 33.820 221.600,34.000 221.240,34.000 220.800 C 34.000 220.360,34.150 220.000,34.332 220.000 C 34.515 220.000,34.919 219.505,35.230 218.900 C 35.540 218.295,36.111 217.509,36.497 217.153 C 36.884 216.797,37.200 216.296,37.200 216.040 C 37.200 215.783,37.785 214.978,38.500 214.251 C 39.215 213.523,40.610 212.026,41.600 210.924 C 42.590 209.821,44.013 208.603,44.762 208.217 C 45.512 207.831,46.491 207.174,46.938 206.757 C 47.385 206.341,47.972 206.000,48.242 206.000 C 48.512 206.000,48.793 205.865,48.867 205.700 C 49.034 205.324,51.164 204.025,52.100 203.729 C 52.485 203.607,52.800 203.348,52.800 203.153 C 52.800 202.959,53.149 202.800,53.576 202.800 C 54.003 202.800,54.464 202.620,54.600 202.400 C 54.736 202.180,55.197 202.000,55.624 202.000 C 56.051 202.000,56.400 201.820,56.400 201.600 C 56.400 201.380,56.749 201.200,57.176 201.200 C 57.603 201.200,58.064 201.020,58.200 200.800 C 58.336 200.580,58.887 200.400,59.424 200.400 C 59.961 200.400,60.400 200.220,60.400 200.000 C 60.400 199.780,60.940 199.600,61.600 199.600 L 62.800 199.600 62.800 187.200 L 62.800 174.800 61.000 174.800 C 60.010 174.800,59.200 174.980,59.200 175.200 M165.200 175.200 C 165.200 175.420,164.491 175.600,163.624 175.600 C 162.757 175.600,161.936 175.780,161.800 176.000 C 161.664 176.220,161.023 176.400,160.376 176.400 C 159.729 176.400,159.200 176.559,159.200 176.754 C 159.200 176.949,158.181 177.235,156.936 177.391 C 155.690 177.546,154.340 177.837,153.936 178.037 C 152.158 178.915,151.695 179.096,149.900 179.620 C 148.855 179.925,148.000 180.315,148.000 180.487 C 148.000 180.659,147.640 180.800,147.200 180.800 C 146.760 180.800,146.400 180.980,146.400 181.200 C 146.400 181.420,146.040 181.600,145.600 181.600 C 145.160 181.600,144.795 181.735,144.789 181.900 C 144.783 182.065,143.793 182.649,142.589 183.197 C 141.385 183.745,140.400 184.330,140.400 184.497 C 140.400 184.664,140.122 184.800,139.783 184.800 C 139.444 184.800,138.780 185.160,138.308 185.600 C 137.836 186.040,137.213 186.400,136.925 186.400 C 136.636 186.400,136.400 186.580,136.400 186.800 C 136.400 187.020,136.157 187.200,135.859 187.200 C 135.562 187.200,134.754 187.740,134.063 188.400 C 133.372 189.060,132.612 189.600,132.372 189.600 C 132.133 189.600,131.246 190.320,130.400 191.200 C 129.554 192.080,128.760 192.800,128.634 192.800 C 128.003 192.800,121.600 199.073,121.600 199.691 C 121.600 199.876,120.970 200.657,120.200 201.427 C 119.430 202.197,118.800 202.992,118.800 203.195 C 118.800 203.398,118.350 204.014,117.800 204.564 C 117.250 205.114,116.800 205.842,116.800 206.182 C 116.800 206.522,116.620 206.800,116.400 206.800 C 116.180 206.800,116.000 207.094,116.000 207.453 C 116.000 207.812,115.685 208.399,115.300 208.757 C 114.413 209.582,113.600 211.019,113.600 211.761 C 113.600 212.076,113.465 212.393,113.300 212.467 C 113.135 212.540,112.574 213.590,112.054 214.800 C 111.534 216.010,110.972 217.277,110.804 217.615 C 110.636 217.954,110.371 218.989,110.214 219.915 C 110.058 220.842,109.766 221.600,109.565 221.600 C 109.364 221.600,109.200 222.320,109.200 223.200 C 109.200 224.080,109.020 224.800,108.800 224.800 C 108.580 224.800,108.400 225.430,108.400 226.200 C 108.400 226.970,108.220 227.600,108.000 227.600 C 107.780 227.600,107.600 228.309,107.600 229.176 C 107.600 230.043,107.420 230.864,107.200 231.000 C 106.980 231.136,106.800 232.227,106.800 233.424 C 106.800 234.621,106.620 235.600,106.400 235.600 C 106.163 235.600,106.000 237.067,106.000 239.200 C 106.000 241.333,105.837 242.800,105.600 242.800 C 105.337 242.800,105.200 252.800,105.200 272.000 L 105.200 301.200 137.600 301.200 L 170.000 301.200 170.000 271.200 L 170.000 241.200 152.400 241.200 L 134.800 241.200 134.800 238.824 C 134.800 237.517,134.980 236.336,135.200 236.200 C 135.420 236.064,135.600 234.973,135.600 233.776 C 135.600 232.579,135.780 231.600,136.000 231.600 C 136.220 231.600,136.400 230.880,136.400 230.000 C 136.400 229.120,136.580 228.400,136.800 228.400 C 137.020 228.400,137.200 228.128,137.200 227.795 C 137.200 227.462,137.364 226.877,137.564 226.495 C 137.765 226.113,138.790 224.000,139.842 221.800 C 140.894 219.600,141.900 217.740,142.078 217.667 C 142.255 217.593,142.400 217.281,142.400 216.972 C 142.400 216.503,149.119 209.521,150.858 208.183 C 152.570 206.867,155.204 205.200,155.572 205.200 C 155.807 205.200,156.000 205.054,156.000 204.875 C 156.000 204.696,156.630 204.302,157.400 204.000 C 158.170 203.698,158.800 203.304,158.800 203.125 C 158.800 202.946,159.160 202.800,159.600 202.800 C 160.040 202.800,160.400 202.620,160.400 202.400 C 160.400 202.180,160.760 202.000,161.200 202.000 C 161.640 202.000,162.000 201.820,162.000 201.600 C 162.000 201.380,162.349 201.200,162.776 201.200 C 163.203 201.200,163.664 201.020,163.800 200.800 C 163.936 200.580,164.487 200.400,165.024 200.400 C 165.561 200.400,166.000 200.220,166.000 200.000 C 166.000 199.780,166.463 199.600,167.029 199.600 C 169.174 199.600,169.200 199.442,169.200 186.629 L 169.200 174.800 167.200 174.800 C 166.100 174.800,165.200 174.980,165.200 175.200 " stroke="none" fill="#040404" fill-rule="evenodd"></path><path id="path2" d="" stroke="none" fill="#14b8a4" fill-rule="evenodd"></path><path id="path3" d="" stroke="none" fill="#146038" fill-rule="evenodd"></path><path id="path4" d="" stroke="none" fill="#14043c" fill-rule="evenodd"></path></g></svg>